<svg width="30" height="30" viewBox="0 0 30 30" fill="none" xmlns="http://www.w3.org/2000/svg">
<circle cx="15" cy="15" r="15" fill="#73D444"/>
<path d="M13.5594 20.1187C13.5594 20.1187 12.6938 20.1187 12.6938 19.2531C12.6938 18.3875 13.5594 15.7906 17.0219 15.7906C20.4844 15.7906 21.35 18.3875 21.35 19.2531C21.35 20.1187 20.4844 20.1187 20.4844 20.1187H13.5594Z" fill="white"/>
<path d="M17.0219 14.925C18.4561 14.925 19.6188 13.7623 19.6188 12.3281C19.6188 10.8939 18.4561 9.7312 17.0219 9.7312C15.5877 9.7312 14.425 10.8939 14.425 12.3281C14.425 13.7623 15.5877 14.925 17.0219 14.925Z" fill="white"/>
<path d="M12.0154 20.1187C11.8935 19.8728 11.8281 19.5813 11.8281 19.2531C11.8281 18.0798 12.4159 16.8731 13.5039 16.0329C13.028 15.8807 12.4731 15.7906 11.8281 15.7906C8.36563 15.7906 7.5 18.3875 7.5 19.2531C7.5 20.1187 8.36563 20.1187 8.36563 20.1187H12.0154Z" fill="white"/>
<path d="M11.3953 14.925C12.5905 14.925 13.5594 13.9561 13.5594 12.7609C13.5594 11.5657 12.5905 10.5968 11.3953 10.5968C10.2001 10.5968 9.23125 11.5657 9.23125 12.7609C9.23125 13.9561 10.2001 14.925 11.3953 14.925Z" fill="white"/>
</svg>
