<svg width="30" height="30" viewBox="0 0 30 30" fill="none" xmlns="http://www.w3.org/2000/svg">
<circle cx="15" cy="15" r="15" fill="#9B51E0"/>
<path d="M13.7019 8.94263C12.9851 8.94263 12.4038 9.52345 12.4038 10.2405V10.6734H9.375C8.65809 10.6734 8.07692 11.2546 8.07692 11.9715V13.1693L14.6655 14.9262C14.8847 14.9847 15.1153 14.9847 15.3345 14.9262L21.9231 13.1693V11.9715C21.9231 11.2546 21.3419 10.6734 20.625 10.6734H17.5961V10.2405C17.5961 9.52345 17.0148 8.94263 16.2981 8.94263H13.7019ZM13.7019 9.80801H16.2981C16.5372 9.80801 16.7308 10.0024 16.7308 10.2412V10.6734H13.2692V10.2405C13.2692 10.0017 13.4628 9.80801 13.7019 9.80801Z" fill="white"/>
<path d="M8.07692 18.8946C8.07692 19.6115 8.65809 20.1926 9.375 20.1926H20.625C21.3419 20.1926 21.9231 19.6115 21.9231 18.8946V14.0044L15.1115 15.8209C15.0384 15.8403 14.9616 15.8403 14.8885 15.8209L8.07692 14.0044V18.8946Z" fill="white"/>
</svg>
