<svg width="31" height="30" viewBox="0 0 31 30" fill="none" xmlns="http://www.w3.org/2000/svg">
<circle cx="15.5" cy="15" r="15" fill="#EC9C52"/>
<path d="M11 8C10.4477 8 10 8.38755 10 8.86563V20.9844C10 21.4624 10.4477 21.85 11 21.85H14V18.8203C14 18.5813 14.2239 18.3875 14.5 18.3875H17.5C17.7761 18.3875 18 18.5813 18 18.8203V21.85H21C21.5523 21.85 22 21.4624 22 20.9844V8.86563C22 8.38755 21.5523 8 21 8H11ZM12 10.1641C12 9.92503 12.2239 9.73125 12.5 9.73125H13.5C13.7761 9.73125 14 9.92503 14 10.1641V11.0297C14 11.2687 13.7761 11.4625 13.5 11.4625H12.5C12.2239 11.4625 12 11.2687 12 11.0297V10.1641ZM15 10.1641C15 9.92503 15.2239 9.73125 15.5 9.73125H16.5C16.7761 9.73125 17 9.92503 17 10.1641V11.0297C17 11.2687 16.7761 11.4625 16.5 11.4625H15.5C15.2239 11.4625 15 11.2687 15 11.0297V10.1641ZM18.5 9.73125H19.5C19.7761 9.73125 20 9.92503 20 10.1641V11.0297C20 11.2687 19.7761 11.4625 19.5 11.4625H18.5C18.2239 11.4625 18 11.2687 18 11.0297V10.1641C18 9.92503 18.2239 9.73125 18.5 9.73125ZM12 12.7609C12 12.5219 12.2239 12.3281 12.5 12.3281H13.5C13.7761 12.3281 14 12.5219 14 12.7609V13.6266C14 13.8656 13.7761 14.0594 13.5 14.0594H12.5C12.2239 14.0594 12 13.8656 12 13.6266V12.7609ZM15.5 12.3281H16.5C16.7761 12.3281 17 12.5219 17 12.7609V13.6266C17 13.8656 16.7761 14.0594 16.5 14.0594H15.5C15.2239 14.0594 15 13.8656 15 13.6266V12.7609C15 12.5219 15.2239 12.3281 15.5 12.3281ZM18 12.7609C18 12.5219 18.2239 12.3281 18.5 12.3281H19.5C19.7761 12.3281 20 12.5219 20 12.7609V13.6266C20 13.8656 19.7761 14.0594 19.5 14.0594H18.5C18.2239 14.0594 18 13.8656 18 13.6266V12.7609ZM12.5 14.925H13.5C13.7761 14.925 14 15.1188 14 15.3578V16.2234C14 16.4625 13.7761 16.6562 13.5 16.6562H12.5C12.2239 16.6562 12 16.4625 12 16.2234V15.3578C12 15.1188 12.2239 14.925 12.5 14.925ZM15 15.3578C15 15.1188 15.2239 14.925 15.5 14.925H16.5C16.7761 14.925 17 15.1188 17 15.3578V16.2234C17 16.4625 16.7761 16.6562 16.5 16.6562H15.5C15.2239 16.6562 15 16.4625 15 16.2234V15.3578ZM18.5 14.925H19.5C19.7761 14.925 20 15.1188 20 15.3578V16.2234C20 16.4625 19.7761 16.6562 19.5 16.6562H18.5C18.2239 16.6562 18 16.4625 18 16.2234V15.3578C18 15.1188 18.2239 14.925 18.5 14.925Z" fill="white"/>
</svg>
