<svg width="30" height="30" viewBox="0 0 30 30" fill="none" xmlns="http://www.w3.org/2000/svg">
<circle cx="15" cy="15" r="15" fill="#2AABEE"/>
<path d="M9.79844 9.7312C9.08133 9.7312 8.5 10.3125 8.5 11.0296V12.7609H13.6938C13.9328 12.7609 14.1266 12.9547 14.1266 13.1937C14.1266 13.413 14.1959 13.7515 14.3912 14.0228C14.5707 14.2721 14.8736 14.4921 15.425 14.4921C15.9764 14.4921 16.2793 14.2721 16.4588 14.0228C16.6541 13.7515 16.7234 13.413 16.7234 13.1937C16.7234 12.9547 16.9172 12.7609 17.1562 12.7609H22.35V11.0296C22.35 10.3125 21.7687 9.7312 21.0516 9.7312H9.79844Z" fill="white"/>
<path d="M22.35 13.6265H17.5449C17.488 13.9151 17.3705 14.2379 17.1612 14.5286C16.8213 15.0008 16.2586 15.3578 15.425 15.3578C14.5914 15.3578 14.0287 15.0008 13.6888 14.5286C13.4795 14.2379 13.362 13.9151 13.3051 13.6265H8.5V18.8203C8.5 19.5374 9.08133 20.1187 9.79844 20.1187H21.0516C21.7687 20.1187 22.35 19.5374 22.35 18.8203V13.6265Z" fill="white"/>
</svg>
