<svg width="24" height="24" viewBox="0 0 24 24" fill="none" xmlns="http://www.w3.org/2000/svg">
<path d="M20.0383 16.8564C22.5919 14.5815 24 12.0001 24 12.0001C24 12.0001 19.5 3.75006 12 3.75006C10.4769 3.75006 9.07758 4.09029 7.81451 4.63256L8.97081 5.78887C9.91475 5.44982 10.9266 5.25006 12 5.25006C15.1791 5.25006 17.8185 7.00233 19.7518 8.93572C20.7055 9.88941 21.4468 10.848 21.9491 11.5687C22.0582 11.7252 22.1556 11.8699 22.241 12.0001C22.1556 12.1302 22.0582 12.2749 21.9491 12.4314C21.4468 13.1522 20.7055 14.1107 19.7518 15.0644C19.5046 15.3116 19.2458 15.5559 18.9759 15.7939L20.0383 16.8564Z" fill="black"/>
<path d="M16.9462 13.7643C17.1429 13.2129 17.25 12.619 17.25 12.0001C17.25 9.10056 14.8995 6.75006 12 6.75006C11.3811 6.75006 10.7872 6.85716 10.2358 7.05384L11.4693 8.28732C11.6426 8.26276 11.8198 8.25006 12 8.25006C14.0711 8.25006 15.75 9.92899 15.75 12.0001C15.75 12.1802 15.7373 12.3574 15.7127 12.5308L16.9462 13.7643Z" fill="black"/>
<path d="M12.5308 15.7128L13.7642 16.9463C13.2129 17.143 12.6189 17.2501 12 17.2501C9.1005 17.2501 6.75 14.8996 6.75 12.0001C6.75 11.3811 6.85711 10.7872 7.05379 10.2358L8.28727 11.4693C8.26271 11.6427 8.25 11.8199 8.25 12.0001C8.25 14.0711 9.92893 15.7501 12 15.7501C12.1802 15.7501 12.3574 15.7373 12.5308 15.7128Z" fill="black"/>
<path d="M5.02416 8.20617C4.75418 8.4442 4.4954 8.68848 4.24816 8.93572C3.29446 9.88941 2.55324 10.848 2.05091 11.5687C1.94181 11.7252 1.84444 11.8699 1.75905 12.0001C1.84444 12.1302 1.94181 12.2749 2.05091 12.4314C2.55324 13.1522 3.29446 14.1107 4.24816 15.0644C6.18155 16.9978 8.82093 18.7501 12 18.7501C13.0734 18.7501 14.0853 18.5503 15.0292 18.2112L16.1855 19.3675C14.9224 19.9098 13.5231 20.2501 12 20.2501C4.5 20.2501 0 12.0001 0 12.0001C0 12.0001 1.40807 9.41859 3.96168 7.14369L5.02416 8.20617Z" fill="black"/>
<path d="M20.4697 21.5304L2.46967 3.53039L3.53033 2.46973L21.5303 20.4697L20.4697 21.5304Z" fill="black"/>
</svg>
