<svg width="16" height="16" viewBox="0 0 16 16" fill="none" xmlns="http://www.w3.org/2000/svg">
<path d="M8 0C8.55228 0 9 0.447715 9 1V7H15C15.5523 7 16 7.44772 16 8C16 8.55228 15.5523 9 15 9H9V15C9 15.5523 8.55228 16 8 16C7.44772 16 7 15.5523 7 15V9H1C0.447715 9 0 8.55228 0 8C0 7.44772 0.447715 7 1 7H7V1C7 0.447715 7.44772 0 8 0Z" fill="white"/>
<path d="M2.5 8H13.5M8 2.5L8 13.5" stroke="white" stroke-linecap="round" stroke-linejoin="round"/>
<path fill-rule="evenodd" clip-rule="evenodd" d="M8 2C8.27614 2 8.5 2.22386 8.5 2.5V7.5H13.5C13.7761 7.5 14 7.72386 14 8C14 8.27614 13.7761 8.5 13.5 8.5H8.5V13.5C8.5 13.7761 8.27614 14 8 14C7.72386 14 7.5 13.7761 7.5 13.5V8.5H2.5C2.22386 8.5 2 8.27614 2 8C2 7.72386 2.22386 7.5 2.5 7.5H7.5V2.5C7.5 2.22386 7.72386 2 8 2Z" fill="white"/>
</svg>
