<svg width="11" height="11" viewBox="0 0 11 11" fill="none" xmlns="http://www.w3.org/2000/svg">
<path d="M0.21967 0.21967C0.512563 -0.0732233 0.987437 -0.0732233 1.28033 0.21967L5.25 4.18934L9.21967 0.21967C9.51256 -0.0732233 9.98744 -0.0732233 10.2803 0.21967C10.5732 0.512563 10.5732 0.987437 10.2803 1.28033L6.31066 5.25L10.2803 9.21967C10.5732 9.51256 10.5732 9.98744 10.2803 10.2803C9.98744 10.5732 9.51256 10.5732 9.21967 10.2803L5.25 6.31066L1.28033 10.2803C0.987437 10.5732 0.512563 10.5732 0.21967 10.2803C-0.0732233 9.98744 -0.0732233 9.51256 0.21967 9.21967L4.18934 5.25L0.21967 1.28033C-0.0732233 0.987437 -0.0732233 0.512563 0.21967 0.21967Z" fill="black"/>
</svg>
