<svg width="1033" height="377" viewBox="0 0 1033 377" fill="none" xmlns="http://www.w3.org/2000/svg">
<rect width="1033" height="377" fill="#F4F5F6"/>
<path d="M501.5 206.5C500.7 206.5 500 206.2 499.4 205.6C498.8 205 498.5 204.3 498.5 203.5V173.5C498.5 172.7 498.8 172 499.4 171.4C500 170.8 500.7 170.5 501.5 170.5H531.5C532.3 170.5 533 170.8 533.6 171.4C534.2 172 534.5 172.7 534.5 173.5V203.5C534.5 204.3 534.2 205 533.6 205.6C533 206.2 532.3 206.5 531.5 206.5H501.5ZM504.3 198.65H528.75L521.4 188.85L514.8 197.4L510.15 191.05L504.3 198.65Z" fill="#CACACA"/>
</svg>
