<svg width="300" height="200" viewBox="0 0 300 200" fill="none" xmlns="http://www.w3.org/2000/svg">
<rect width="300" height="200" rx="4" fill="#F4F5F6"/>
<path d="M135 118C134.2 118 133.5 117.7 132.9 117.1C132.3 116.5 132 115.8 132 115V85C132 84.2 132.3 83.5 132.9 82.9C133.5 82.3 134.2 82 135 82H165C165.8 82 166.5 82.3 167.1 82.9C167.7 83.5 168 84.2 168 85V115C168 115.8 167.7 116.5 167.1 117.1C166.5 117.7 165.8 118 165 118H135ZM137.8 110.15H162.25L154.9 100.35L148.3 108.9L143.65 102.55L137.8 110.15Z" fill="#CACACA"/>
</svg>
