<svg width="529" height="578" viewBox="0 0 529 578" fill="none" xmlns="http://www.w3.org/2000/svg">
<rect width="530" height="578" fill="#F4F5F6"/>
<path d="M250 307C249.2 307 248.5 306.7 247.9 306.1C247.3 305.5 247 304.8 247 304V274C247 273.2 247.3 272.5 247.9 271.9C248.5 271.3 249.2 271 250 271H280C280.8 271 281.5 271.3 282.1 271.9C282.7 272.5 283 273.2 283 274V304C283 304.8 282.7 305.5 282.1 306.1C281.5 306.7 280.8 307 280 307H250ZM252.8 299.15H277.25L269.9 289.35L263.3 297.9L258.65 291.55L252.8 299.15Z" fill="#CACACA"/>
</svg>
